# xmcd
#
# Track frame offsets: 
#        150
#        18621
#        36740
#        50453
#        63534
#        90934
#        103607
#        118160
#        137462
#        165366
#        190635
#        199997
#        215689
#
# Disc length: 3241 seconds
#
# Revision: 3
# Processed by: cddbd v1.5.2PL0 Copyright (c) Steve Scherf et al.
# Submitted via: ExactAudioCopy v1.0b3
#
DISCID=b80ca70d
DTITLE=John Mooney - Dealing With The Devil
DYEAR=1996
DGENRE=Blues
TTITLE0=New Someday Baby
TTITLE1=Baby Please Don't Go
TTITLE2=Travelin' Riverside Blues
TTITLE3=Broken Mold
TTITLE4=Late On In The Evening
TTITLE5=Keep It Clean
TTITLE6=U Told Me
TTITLE7=Junco Partner
TTITLE8=It Don't Mean A Doggone Thing
TTITLE9=Country Boy
TTITLE10=Grinnin' In Your Face
TTITLE11=Sacred Ground
TTITLE12=Shortnin' Bread
EXTD=
EXTT0=
EXTT1=
EXTT2=
EXTT3=
EXTT4=
EXTT5=
EXTT6=
EXTT7=
EXTT8=
EXTT9=
EXTT10=
EXTT11=
EXTT12=
PLAYORDER=
